# Blender v2.93.0 OBJ File: ''
# www.blender.org
mtllib forest.mtl
o Cube
v 1.000000 1.000000 -1.000000
v 1.000000 1.000000 1.000000
v -1.000000 1.000000 -1.000000
v -1.000000 1.000000 1.000000
v 0.333333 1.000000 1.000000
v -0.333333 1.000000 1.000000
v 1.000000 1.000000 -0.333333
v 1.000000 1.000000 0.333333
v -1.000000 1.000000 0.333333
v -1.000000 1.000000 -0.333333
v -0.333333 1.000000 -1.000000
v 0.333333 1.000000 -1.000000
v 0.071404 1.000000 -0.071404
v 0.071404 1.000000 0.071404
v -0.071404 1.000000 -0.071404
v -0.071404 1.000000 0.071404
v 0.071404 1.568631 -0.071404
v 0.071404 1.568631 0.071404
v -0.071404 1.568631 -0.071404
v -0.071404 1.568631 0.071404
v 0.444696 1.568631 -0.444696
v 0.444696 1.568631 0.444696
v -0.444696 1.568631 -0.444696
v -0.444696 1.568631 0.444696
v 0.000000 3.073706 0.000000
vt 0.791667 0.666667
vt 0.875000 0.666667
vt 0.875000 0.750000
vt 0.791667 0.750000
vt 0.625000 0.666667
vt 0.708333 0.666667
vt 0.708333 0.750000
vt 0.625000 0.750000
vt 0.625000 0.500000
vt 0.708333 0.500000
vt 0.708333 0.583333
vt 0.625000 0.583333
vt 0.791667 0.500000
vt 0.791667 0.583333
vt 0.708333 0.666667
vt 0.791667 0.666667
vt 0.875000 0.500000
vt 0.875000 0.583333
vt 0.708333 0.583333
vt 0.791667 0.583333
vt 0.791667 0.583333
vt 0.708333 0.583333
vt 0.708333 0.666667
vt 0.708333 0.666667
vt 0.791667 0.666667
vt 0.791667 0.666667
vt 0.791667 0.583333
vt 0.708333 0.583333
vn 0.0000 1.0000 0.0000
vn 0.0000 0.0000 1.0000
vn 0.0000 -1.0000 0.0000
vn -1.0000 0.0000 0.0000
vn 0.0000 0.0000 -1.0000
vn 1.0000 0.0000 0.0000
vn 0.9590 0.2834 0.0000
vn 0.0000 0.2834 0.9590
vn -0.9590 0.2834 0.0000
vn 0.0000 0.2834 -0.9590
usemtl Material
s off
f 16/1/1 9/2/1 4/3/1 6/4/1
f 8/5/1 14/6/1 5/7/1 2/8/1
f 14/6/1 16/1/1 6/4/1 5/7/1
f 1/9/1 12/10/1 13/11/1 7/12/1
f 7/12/1 13/11/1 14/6/1 8/5/1
f 12/10/1 11/13/1 15/14/1 13/11/1
f 16/1/2 14/6/2 18/15/2 20/16/2
f 11/13/1 3/17/1 10/18/1 15/14/1
f 15/14/1 10/18/1 9/2/1 16/1/1
f 17/19/3 19/20/3 23/21/3 21/22/3
f 15/14/4 16/1/4 20/16/4 19/20/4
f 13/11/5 15/14/5 19/20/5 17/19/5
f 14/6/6 13/11/6 17/19/6 18/15/6
f 22/23/7 21/22/7 25/24/7
f 18/15/3 17/19/3 21/22/3 22/23/3
f 20/16/3 18/15/3 22/23/3 24/25/3
f 19/20/3 20/16/3 24/25/3 23/21/3
f 24/25/8 22/23/8 25/26/8
f 23/21/9 24/25/9 25/27/9
f 21/22/10 23/21/10 25/28/10
