# Blender v2.93.0 OBJ File: ''
# www.blender.org
mtllib sand.mtl
o Cube.001
v 1.000000 1.000000 -1.000000
v -1.000000 1.000000 -1.000000
v -1.000000 1.000000 1.000000
v 1.000000 1.000000 1.000000
v -0.333333 1.000000 1.000000
v 0.333333 1.000000 1.000000
v 0.333333 1.000000 -1.000000
v -0.333333 1.000000 -1.000000
v -1.000000 1.000000 -0.333333
v -1.000000 1.000000 0.333333
v 1.000000 1.000000 -0.333333
v 1.000000 1.000000 0.333333
v 0.066153 1.000000 -0.066153
v 0.066153 1.000000 0.066153
v -0.066153 1.000000 -0.066153
v -0.066153 1.000000 0.066153
v 0.150120 1.610239 -0.030731
v 0.150120 1.610239 0.101575
v 0.017814 1.610239 -0.030731
v 0.017814 1.610239 0.101575
v -0.206742 1.365440 -0.588211
v -0.206742 1.365440 -0.455905
v -0.339048 1.365440 -0.588211
v -0.339048 1.365440 -0.455905
v -0.277765 1.327922 0.360287
v -0.277765 1.327922 0.492593
v -0.410072 1.327922 0.360287
v -0.410072 1.327922 0.492593
v -0.279798 1.309254 -0.226452
v -0.279798 1.309254 -0.094146
v -0.412104 1.309254 -0.226452
v -0.412104 1.309254 -0.094146
v 0.212540 1.429175 0.504631
v 0.212540 1.429175 0.636937
v 0.080233 1.429175 0.504631
v 0.080233 1.429175 0.636937
v 0.370096 1.331289 -0.396189
v 0.370096 1.331289 -0.263882
v 0.237790 1.331289 -0.396189
v 0.237790 1.331289 -0.263882
v 0.423566 1.291629 -0.006086
v 0.423566 1.291629 0.126220
v 0.291260 1.291629 -0.006086
v 0.291260 1.291629 0.126220
vt 0.791667 0.666667
vt 0.875000 0.666667
vt 0.875000 0.750000
vt 0.791667 0.750000
vt 0.625000 0.666667
vt 0.708333 0.666667
vt 0.708333 0.750000
vt 0.625000 0.750000
vt 0.625000 0.500000
vt 0.708333 0.500000
vt 0.708333 0.583333
vt 0.625000 0.583333
vt 0.791667 0.500000
vt 0.791667 0.583333
vt 0.791667 0.666667
vt 0.791667 0.583333
vt 0.875000 0.500000
vt 0.875000 0.583333
vt 0.708333 0.583333
vt 0.708333 0.666667
vt 0.791667 0.583333
vt 0.791667 0.666667
vt 0.708333 0.583333
vt 0.708333 0.666667
vt 0.791667 0.666667
vt 0.791667 0.583333
vt 0.708333 0.583333
vt 0.708333 0.666667
vt 0.791667 0.583333
vt 0.791667 0.666667
vt 0.708333 0.583333
vt 0.708333 0.666667
vt 0.791667 0.666667
vt 0.791667 0.583333
vt 0.708333 0.583333
vt 0.708333 0.666667
vt 0.791667 0.583333
vt 0.791667 0.666667
vt 0.708333 0.583333
vt 0.708333 0.666667
vt 0.791667 0.666667
vt 0.791667 0.583333
vt 0.708333 0.583333
vt 0.708333 0.666667
vn -0.0000 1.0000 0.0000
vn -0.7162 0.1383 -0.6840
vn -0.7463 0.0642 0.6625
vn -0.5311 0.5945 0.6038
vn -0.5351 0.6276 -0.5655
vn 0.6230 0.5531 -0.5531
vn 0.6151 0.5258 0.5875
vn 0.6597 -0.0472 -0.7500
vn 0.6810 -0.1355 0.7196
vn 0.3307 -0.6832 -0.6511
vn 0.5105 0.8067 0.2978
vn 0.3504 0.8434 0.4073
vn 0.9192 0.2342 -0.3166
vn -0.9192 -0.2342 0.3166
vn -0.3307 0.6832 0.6511
vn -0.3504 -0.8434 -0.4073
vn -0.5105 -0.8067 -0.2978
vn -0.3227 0.6065 -0.7266
vn -0.4031 -0.8532 0.3310
vn -0.3543 -0.8573 0.3735
vn -0.8307 -0.4559 -0.3194
vn 0.3543 0.8573 -0.3735
vn 0.4031 0.8532 -0.3310
vn 0.8307 0.4559 0.3194
vn 0.3227 -0.6065 0.7266
vn 0.3665 -0.0709 -0.9277
vn 0.3627 0.7153 0.5973
vn 0.4909 0.7651 0.4166
vn 0.7075 0.5890 -0.3906
vn -0.7075 -0.5890 0.3906
vn -0.3665 0.0709 0.9277
vn -0.4909 -0.7651 -0.4166
vn -0.3627 -0.7153 -0.5973
vn -0.3799 0.7835 -0.4917
vn -0.9367 -0.1188 0.3295
vn -0.3681 -0.6954 0.6172
vn -0.6893 0.6529 -0.3141
vn 0.3681 0.6954 -0.6172
vn 0.9367 0.1188 -0.3295
vn 0.6893 -0.6529 0.3141
vn 0.3799 -0.7835 0.4917
vn 0.4160 -0.8043 -0.4242
vn 0.8381 -0.4067 0.3636
vn 0.3657 0.4667 0.8053
vn 0.4343 -0.8037 -0.4068
vn -0.4343 0.8037 0.4068
vn -0.4160 0.8043 0.4242
vn -0.3657 -0.4667 -0.8053
vn -0.8381 0.4067 -0.3636
vn -0.5376 0.7415 -0.4014
vn -0.6202 0.6792 0.3925
vn -0.3453 0.2361 0.9083
vn -0.3369 0.5676 -0.7512
vn 0.3453 -0.2361 -0.9083
vn 0.6202 -0.6792 -0.3925
vn 0.3369 -0.5676 0.7512
vn 0.5376 -0.7415 0.4014
usemtl Material.001
s 1
f 16/1/1 10/2/1 3/3/1 5/4/1
f 12/5/1 14/6/1 6/7/1 4/8/1
f 14/6/1 16/1/1 5/4/1 6/7/1
f 1/9/1 7/10/1 13/11/1 11/12/1
f 11/12/1 13/11/1 14/6/1 12/5/1
f 7/10/1 8/13/1 15/14/1 13/11/1
f 15/14/2 16/1/3 20/15/4 19/16/5
f 8/13/1 2/17/1 9/18/1 15/14/1
f 15/14/1 9/18/1 10/2/1 16/1/1
f 17/19/6 19/16/5 20/15/4 18/20/7
f 13/11/8 15/14/2 19/16/5 17/19/6
f 14/6/9 13/11/8 17/19/6 18/20/7
f 16/1/3 14/6/9 18/20/7 20/15/4
f 16/1/10 15/14/11 23/21/12 24/22/13
f 15/14/11 13/11/14 21/23/15 23/21/12
f 13/11/14 14/6/16 22/24/17 21/23/15
f 14/6/16 16/1/10 24/22/13 22/24/17
f 15/14/18 16/1/19 28/25/20 27/26/21
f 13/11/22 15/14/18 27/26/21 25/27/23
f 14/6/24 13/11/22 25/27/23 26/28/25
f 16/1/19 14/6/24 26/28/25 28/25/20
f 16/1/26 15/14/27 31/29/28 32/30/29
f 15/14/27 13/11/30 29/31/31 31/29/28
f 13/11/30 14/6/32 30/32/33 29/31/31
f 14/6/32 16/1/26 32/30/29 30/32/33
f 15/14/34 16/1/35 36/33/36 35/34/37
f 13/11/38 15/14/34 35/34/37 33/35/39
f 14/6/40 13/11/38 33/35/39 34/36/41
f 16/1/35 14/6/40 34/36/41 36/33/36
f 16/1/42 15/14/43 39/37/44 40/38/45
f 15/14/43 13/11/46 37/39/47 39/37/44
f 13/11/46 14/6/48 38/40/49 37/39/47
f 14/6/48 16/1/42 40/38/45 38/40/49
f 15/14/50 16/1/51 44/41/52 43/42/53
f 13/11/54 15/14/50 43/42/53 41/43/55
f 14/6/56 13/11/54 41/43/55 42/44/57
f 16/1/51 14/6/56 42/44/57 44/41/52
